# xmcd
#
# Track frame offsets:
#	150
#	16122
#	30338
#	46956
#	64508
#	82052
#	96767
#	115070
#	146250
#	175392
#	199929
#	229721
#	265579
#	299201
#	321782
#
# Disc length: 4665 seconds
#
# Revision: 0
# Processed by: cddbd v1.5.2PL0 Copyright (c) Steve Scherf et al.
# Submitted via: dBpowerAMP V4.0
#
DISCID=ca12370f
DTITLE=Various Artist - Vitcory - The Finest Collection Of Commercial Trance and Dance
DYEAR=2003
DGENRE=Dance
TTITLE0=Lightforce - Big Girls Don't Cry (Rock Ryders Radio)
TTITLE1=Surfgiants - Who's Sorry Now? (Radio Mix)
TTITLE2=Safyre - Always Love (Kaze Edit)
TTITLE3=Lightforce - Right Here Waiting (Radio Mix)
TTITLE4=Mystral - Falling Star (Radio Mix)
TTITLE5=Ferris presents A.O.M. - Living (Radio and Video Edit)
TTITLE6=Safyre - Always Love (Radio Mix)
TTITLE7=Lightforce - Big Girls Don't Cry (Original Club Mix)
TTITLE8=Surfgiants - Who's Sorry Now? (Bad Boyz DJ Team RMX)
TTITLE9=Ferris presents A.O.M. - Living (Axel Coon RMX)
TTITLE10=Lightforce - Right Here Waiting (Original Club Mix)
TTITLE11=Mystral - Falling Star (Club Mix)
TTITLE12=Safyre - Always Love (Kaze RMX)
TTITLE13=Ferris presents A.O.M. - Living (Original Club)
TTITLE14=Mystral - Romantic Music (DJ Sequenza RMX)
EXTD=
EXTT0=
EXTT1=
EXTT2=
EXTT3=
EXTT4=
EXTT5=
EXTT6=
EXTT7=
EXTT8=
EXTT9=
EXTT10=
EXTT11=
EXTT12=
EXTT13=
EXTT14=
PLAYORDER=
